<svg version="1.1" id="Layer_1" xmlns="http://www.w3.org/2000/svg" xmlns:xlink="http://www.w3.org/1999/xlink" x="0px" y="0px"
	 width="100%" viewBox="0 0 500 280" enable-background="new 0 0 500 280" xml:space="preserve">
<path fill="#000000" opacity="1.000000" stroke="none" 
	d="
M368.000000,281.000000 
	C246.833359,281.000000 126.166687,280.979797 5.500154,281.094391 
	C1.750697,281.097931 0.899913,280.250000 0.904965,276.499939 
	C1.026892,186.000107 1.024824,95.500069 0.904246,5.000243 
	C0.899684,1.576286 1.576005,0.903030 4.999946,0.905295 
	C168.999832,1.013773 332.999817,1.013764 496.999725,0.905340 
	C500.422974,0.903076 501.100342,1.575285 501.095795,4.999921 
	C500.975220,95.666420 500.975220,186.333130 501.095703,276.999634 
	C501.100250,280.423309 500.426208,281.110199 496.999908,281.098206 
	C454.167023,280.948273 411.333405,281.000000 368.000000,281.000000 
z"/>
<path fill="#D8D7D6" opacity="1.000000" stroke="none" 
	d="
M278.465637,148.293243 
	C254.726791,147.989960 231.364563,147.999466 207.538361,148.014206 
	C202.971603,150.429977 198.745621,150.060638 194.027252,148.339325 
	C183.420792,148.079971 173.257385,148.059204 162.636536,148.042984 
	C154.742294,150.821884 147.218399,150.049576 139.263489,148.320038 
	C103.561531,148.029251 68.273529,147.935730 32.986946,148.117126 
	C28.781538,148.138748 27.493580,147.086243 27.914326,142.950790 
	C28.299839,139.161636 28.295589,135.272141 27.912989,131.482391 
	C27.521128,127.600899 28.957850,126.908150 32.579060,126.922180 
	C67.699631,127.058189 102.820984,126.992882 138.402039,126.974533 
	C146.288513,124.214081 153.802063,124.938911 161.749603,126.679001 
	C173.732254,126.957405 185.299393,126.958321 197.321091,126.949310 
	C200.490128,125.118919 203.315598,125.045982 206.627029,126.698479 
	C230.402298,126.999435 253.782379,127.004257 277.638184,127.016296 
	C279.679871,125.467484 281.706818,125.428337 283.696014,125.419044 
	C289.501984,125.391907 295.308990,125.257179 301.601532,125.490234 
	C320.668701,125.210587 339.249054,125.342842 358.315765,125.465775 
	C366.227692,125.729591 373.716339,124.358704 381.429932,126.708504 
	C411.095459,127.030151 440.402802,127.083199 469.709015,126.924034 
	C473.186462,126.905151 474.369080,127.710594 474.081573,131.272324 
	C473.747681,135.408310 473.745544,139.612961 474.082184,143.748505 
	C474.372467,147.314255 473.186249,148.114639 469.712189,148.093079 
	C444.235901,147.934998 418.758209,148.003143 393.280945,148.010056 
	C383.290253,148.012756 373.299530,148.041321 362.867035,148.073822 
	C356.451019,150.558548 350.167419,149.350967 343.521393,149.608887 
	C329.719360,149.522278 316.405396,149.807587 302.605377,149.526077 
	C294.357178,149.277328 286.533997,150.651382 278.465637,148.293243 
z"/>
<path fill="#FCFCFC" opacity="1.000000" stroke="none" 
	d="
M381.748566,126.647079 
	C374.433105,127.021294 367.077728,127.001671 359.239136,126.954712 
	C357.120422,124.535606 358.346436,122.095596 358.646088,119.677292 
	C360.003876,108.720268 360.411682,97.771294 357.902374,86.919479 
	C353.921967,69.705399 343.430817,61.134930 325.775482,60.447113 
	C321.946442,60.297935 318.126709,60.094704 314.304932,60.561268 
	C307.859100,61.348183 305.187836,63.787651 303.891541,70.120819 
	C303.420105,72.423927 303.478455,74.759163 303.477356,77.089180 
	C303.470673,91.242989 303.492706,105.396828 303.457062,119.550560 
	C303.451263,121.853523 303.800293,124.239616 302.195557,126.691208 
	C294.290588,126.989746 286.661835,126.961937 278.573486,126.978821 
	C278.481995,108.555588 278.724030,90.082779 277.950745,71.624474 
	C277.614899,63.608334 274.364166,60.423050 266.386810,59.171429 
	C264.581665,58.888206 262.746643,58.748165 260.919769,58.662746 
	C258.911682,58.568859 257.985107,57.831303 258.073730,55.610619 
	C258.170105,53.195549 259.588501,53.557957 261.123322,53.626137 
	C284.919952,54.683224 308.728363,53.463375 332.524231,53.961414 
	C345.186371,54.226429 357.284027,57.067513 367.781708,64.602615 
	C384.727173,76.765846 390.809723,98.840294 383.536926,121.091927 
	C382.970093,122.826286 382.320038,124.533447 381.748566,126.647079 
z"/>
<path fill="#FBFBFB" opacity="1.000000" stroke="none" 
	d="
M138.894592,148.504150 
	C146.305923,148.029037 153.762756,148.018112 161.699341,148.027359 
	C162.159882,167.700424 162.136932,187.353333 162.130737,207.006226 
	C162.130371,208.169540 162.210159,209.339233 162.344757,210.495224 
	C163.568024,221.000839 166.407455,223.882812 176.992462,223.989365 
	C189.626083,224.116547 202.301773,225.098160 214.886444,223.043427 
	C226.124268,221.208603 233.542175,214.923721 236.998123,204.028412 
	C239.119095,197.341751 240.434906,190.479675 240.950027,183.507614 
	C241.161850,180.640900 242.221649,179.881256 244.927795,179.993256 
	C248.346909,180.134796 246.936203,182.519730 246.852524,183.945511 
	C246.030518,197.949387 246.488571,211.916840 247.930573,225.851822 
	C248.249161,228.930466 247.763672,230.125366 244.180878,230.005020 
	C203.715591,228.645813 163.244736,229.074829 122.773788,229.882751 
	C121.366898,229.910828 119.041809,231.345169 118.725166,227.994781 
	C118.433258,224.906128 120.150513,224.806824 122.289780,224.819504 
	C122.620888,224.821457 122.953415,224.764160 123.283569,224.721115 
	C135.874969,223.080002 138.695633,220.221512 138.843155,207.430725 
	C139.067871,187.945480 138.926163,168.455994 138.894592,148.504150 
z"/>
<path fill="#FCFCFC" opacity="1.000000" stroke="none" 
	d="
M162.124756,126.492149 
	C154.715546,126.969879 147.265991,126.983261 139.339188,126.980347 
	C138.879379,110.136833 138.916580,93.309570 138.887802,76.482422 
	C138.884399,74.496216 138.615463,72.495399 138.304367,70.527473 
	C137.103592,62.931408 134.757675,60.526730 127.248611,59.235424 
	C125.283905,58.897556 123.277763,58.757576 121.283974,58.644405 
	C119.421257,58.538670 118.733154,57.725868 118.746216,55.814339 
	C118.760620,53.706039 119.714981,53.293152 121.538391,53.449398 
	C123.694054,53.634117 125.864655,53.688854 128.029724,53.712730 
	C165.183441,54.122482 202.338196,54.482353 239.487854,53.528542 
	C242.359833,53.454807 243.292496,53.985844 242.960800,56.960407 
	C241.537170,69.728142 240.967072,82.532249 241.942017,95.369781 
	C242.058426,96.902489 242.327377,98.437271 239.897537,98.257629 
	C238.086807,98.123756 236.233551,98.595398 236.042999,95.729874 
	C235.622726,89.409500 234.433014,83.189362 232.848068,77.062675 
	C230.228836,66.937958 223.772751,61.050220 213.277954,59.931126 
	C199.991196,58.514313 186.666931,58.548119 173.388214,59.796364 
	C166.073730,60.483955 163.852310,62.957630 162.838608,70.096085 
	C162.372162,73.380730 162.127716,76.723213 162.112015,80.041031 
	C162.039444,95.369652 162.082687,110.698830 162.124756,126.492149 
z"/>
<path fill="#FAFAFA" opacity="1.000000" stroke="none" 
	d="
M278.200958,148.438843 
	C285.719025,148.003326 293.349060,148.026199 301.440552,148.014099 
	C303.466156,152.116226 306.692627,152.542801 310.674774,152.654373 
	C321.441345,152.956055 331.869324,151.272186 342.528992,148.244415 
	C349.061340,148.038025 355.246918,148.043304 361.928864,148.069046 
	C351.022614,156.481201 337.691620,157.998917 324.176178,158.639145 
	C317.864197,158.938156 311.527618,158.822998 305.204590,158.730560 
	C302.864807,158.696335 301.615997,158.963242 301.652649,161.866882 
	C301.850037,177.510330 301.628113,193.160980 301.968231,208.800049 
	C302.195953,219.271881 305.926117,222.857925 316.448700,224.095032 
	C318.596527,224.347534 320.751373,224.554184 322.889282,224.873688 
	C324.602783,225.129761 327.011078,224.014618 326.973969,227.518387 
	C326.935303,231.171341 324.469025,229.915237 322.828278,229.841431 
	C309.020905,229.220535 295.208160,229.045593 281.392242,229.238647 
	C274.736969,229.331635 268.085602,229.684052 261.431274,229.879684 
	C259.892822,229.924942 258.063446,230.599808 258.056549,227.740494 
	C258.051208,225.518387 258.882935,225.103012 260.904999,224.822861 
	C276.609680,222.647034 278.171875,220.939651 278.294250,204.824432 
	C278.435822,186.183060 278.318054,167.539719 278.200958,148.438843 
z"/>
<path fill="#F6F6F6" opacity="1.000000" stroke="none" 
	d="
M193.742493,148.421326 
	C197.766220,148.072311 201.948242,148.043869 206.602325,148.017441 
	C206.644745,156.332550 207.854279,164.583618 207.991318,172.873169 
	C208.016769,174.414200 209.164734,176.651352 205.892593,176.789780 
	C203.058701,176.909653 202.255249,175.800629 201.957642,173.120575 
	C200.995331,164.455048 201.016449,155.396332 193.742493,148.421326 
z"/>
<path fill="#FAFAFA" opacity="1.000000" stroke="none" 
	d="
M206.959122,126.530594 
	C204.249908,126.992798 201.477570,126.990982 198.240448,126.964279 
	C199.509949,121.205559 200.633453,115.349258 201.128830,109.384651 
	C201.342117,106.816566 202.255966,105.617554 205.137100,105.765884 
	C208.445526,105.936211 207.199310,108.063820 207.186249,109.628365 
	C207.140472,115.108192 207.000320,120.587242 206.959122,126.530594 
z"/>
<path fill="#ABABAB" opacity="1.000000" stroke="none" 
	d="
M192.041138,262.077942 
	C192.523682,260.974579 192.996780,260.150177 193.469879,259.325775 
	C193.959885,260.009399 194.654617,260.627197 194.899796,261.389557 
	C195.523605,263.329346 195.780029,265.398468 196.513870,267.287445 
	C196.934250,268.369598 196.808762,268.793701 195.789856,268.925385 
	C195.010590,269.026123 194.456894,268.981689 194.207153,267.784607 
	C193.813553,265.898193 194.058609,263.628021 192.041138,262.077942 
z"/>
<path fill="#CFCFCF" opacity="1.000000" stroke="none" 
	d="
M321.557434,23.072678 
	C322.026764,19.624052 322.663666,16.373991 323.516724,12.020814 
	C325.061707,16.506605 323.274475,20.000885 323.798492,23.421604 
	C323.860901,23.829082 322.431946,23.671957 321.557434,23.072678 
z"/>
<path fill="#737373" opacity="1.000000" stroke="none" 
	d="
M307.281921,16.458855 
	C305.395416,15.124163 305.852020,13.638840 307.102448,12.672417 
	C308.921204,11.266733 310.919708,11.877530 313.109253,12.644632 
	C311.704926,14.852276 307.859985,10.873230 308.002380,15.628654 
	C307.867462,16.168169 307.730713,16.325769 307.281921,16.458855 
z"/>
<path fill="#1A1A1A" opacity="1.000000" stroke="none" 
	d="
M171.978210,265.018188 
	C172.321106,263.064789 173.258484,262.708252 174.415588,263.716919 
	C175.229385,264.426361 175.258575,265.622833 174.432755,266.335571 
	C173.268906,267.340027 172.336945,266.934967 171.978210,265.018188 
z"/>
<path fill="#090909" opacity="1.000000" stroke="none" 
	d="
M312.002075,20.140409 
	C311.999054,19.475904 311.942963,19.144665 312.012238,18.842125 
	C312.428802,17.022707 312.947693,18.207939 313.065308,18.887999 
	C313.267151,20.054777 314.988068,21.562613 312.860779,22.337982 
	C312.043640,22.635807 312.124481,21.218761 312.002075,20.140409 
z"/>
<path fill="#1A1A1A" opacity="1.000000" stroke="none" 
	d="
M167.017242,266.972565 
	C166.038635,265.330383 166.937119,264.953491 168.006699,265.217743 
	C169.517532,265.591003 169.435867,267.114349 168.862671,267.919556 
	C168.045334,269.067719 167.844604,267.406128 167.017242,266.972565 
z"/>
<path fill="#B9B9B9" opacity="1.000000" stroke="none" 
	d="
M163.033722,261.903168 
	C162.473679,263.084351 161.680603,264.483429 161.014923,263.725342 
	C160.141708,262.730988 160.750275,260.958649 161.823624,260.191772 
	C162.774323,259.512482 162.960785,260.719025 163.033722,261.903168 
z"/>
<path fill="#090909" opacity="1.000000" stroke="none" 
	d="
M306.328003,22.007439 
	C306.943665,21.146608 307.486481,21.298124 307.752136,21.966978 
	C307.885681,22.303267 307.757019,23.069393 307.545593,23.157379 
	C306.840698,23.450724 306.528229,22.855068 306.328003,22.007439 
z"/>
<path fill="#090909" opacity="1.000000" stroke="none" 
	d="
M310.676270,16.901461 
	C310.927124,17.808430 310.877075,18.469616 310.002594,18.545879 
	C309.806335,18.562994 309.411713,18.202719 309.390533,17.988329 
	C309.315826,17.231400 309.706726,16.762138 310.676270,16.901461 
z"/>
<path fill="#1A1A1A" opacity="1.000000" stroke="none" 
	d="
M172.399216,261.457794 
	C171.940399,261.401581 171.661179,261.173248 171.381958,260.944916 
	C171.566666,260.768829 171.751358,260.592712 171.936066,260.416595 
	C172.150314,260.706268 172.364563,260.995972 172.399216,261.457794 
z"/>
<path fill="#1A1A1A" opacity="1.000000" stroke="none" 
	d="
M169.112534,261.659607 
	C169.989731,262.405182 169.410797,262.714417 168.801285,262.825806 
	C168.495346,262.881683 168.122726,262.572479 167.780258,262.428406 
	C168.140747,262.182526 168.501251,261.936646 169.112534,261.659607 
z"/>
<path fill="#1A1A1A" opacity="1.000000" stroke="none" 
	d="
M172.697433,269.032471 
	C172.732819,269.519867 172.497726,270.061340 172.190689,270.558350 
	C172.161011,270.606384 171.499207,270.435791 171.448547,270.269745 
	C171.207016,269.478149 171.745209,269.203430 172.697433,269.032471 
z"/>
<path fill="#090909" opacity="1.000000" stroke="none" 
	d="
M307.010437,16.658281 
	C307.143036,16.365602 307.316193,16.296865 307.746765,16.119350 
	C307.909546,16.448538 307.814911,16.886503 307.720276,17.324471 
	C307.497162,17.177055 307.274109,17.029640 307.010437,16.658281 
z"/>
<path fill="#B9B9B9" opacity="1.000000" stroke="none" 
	d="
M158.521683,264.271790 
	C159.105774,264.242981 159.442200,264.409851 159.778610,264.576752 
	C159.236755,265.095428 158.740082,264.992157 158.521683,264.271790 
z"/>
<path fill="#090909" opacity="1.000000" stroke="none" 
	d="
M310.463348,23.441528 
	C310.527313,23.401932 310.399384,23.481123 310.463348,23.441528 
z"/>
<path fill="#1A1A1A" opacity="1.000000" stroke="none" 
	d="
M173.004517,269.005981 
	C173.092743,268.972870 173.176392,268.933746 173.123978,268.942688 
	C172.987915,268.990784 172.999954,269.000000 173.004517,269.005981 
z"/>
<path fill="#010101" opacity="1.000000" stroke="none" 
	d="
M302.393158,127.013565 
	C301.935852,108.910957 301.732452,90.800400 302.058197,72.699379 
	C302.230713,63.111717 305.875397,59.729446 315.331879,58.699429 
	C322.348663,57.935146 329.290222,58.575439 336.076324,60.339119 
	C348.537537,63.577744 355.855164,72.038887 358.921356,84.205132 
	C362.431122,98.131630 362.329163,112.149368 358.838654,126.524551 
	C340.126282,126.954773 321.496613,126.982170 302.393158,127.013565 
z"/>
<path fill="#0D0D0D" opacity="1.000000" stroke="none" 
	d="
M342.415039,148.034943 
	C336.770599,152.667465 329.457733,152.983353 322.299225,153.530304 
	C317.024292,153.933334 311.679535,153.439468 306.408386,153.867996 
	C302.268860,154.204514 301.076019,152.591904 301.804382,148.418167 
	C315.252808,147.998474 328.603577,148.017822 342.415039,148.034943 
z"/>
<path fill="#F49517" opacity="1.000000" stroke="none" 
	d="
M132.655487,141.257996 
	C132.559006,142.615585 132.621628,143.765442 131.259949,143.849670 
	C129.786453,143.940796 129.857773,142.737366 129.838806,141.779663 
	C129.792999,139.464737 129.775391,137.147308 129.834274,134.833130 
	C129.861618,133.758453 129.487656,132.371246 131.112473,132.033401 
	C132.690384,131.705292 133.522461,132.545715 134.098755,133.951706 
	C134.649155,135.294525 135.417191,136.548157 136.114670,137.889297 
	C136.577408,137.567398 136.841522,137.436340 137.038452,137.238419 
	C138.768097,135.500015 137.971100,131.015137 142.393356,132.254242 
	C143.139297,132.463257 143.405182,142.591629 142.709091,143.345825 
	C142.434845,143.642975 141.907623,143.828735 141.488007,143.843048 
	C140.716003,143.869370 140.317215,143.321930 140.243271,142.601181 
	C140.114822,141.349091 140.040131,140.091476 139.843292,137.550461 
	C138.004730,141.752289 136.517487,145.589157 133.484192,139.699234 
	C133.137238,139.025558 132.942413,140.438873 132.655487,141.257996 
z"/>
<path fill="#F39921" opacity="1.000000" stroke="none" 
	d="
M388.915833,143.470963 
	C385.674713,141.457245 384.559845,138.954880 385.845062,135.675110 
	C387.051270,132.596909 389.546417,131.691910 392.640656,131.875244 
	C395.656647,132.053940 397.589386,133.600082 398.382507,136.465958 
	C399.744324,141.386826 395.751770,144.514496 388.915833,143.470963 
z"/>
<path fill="#F4961B" opacity="1.000000" stroke="none" 
	d="
M247.419312,133.576462 
	C250.046600,137.279953 249.903549,140.518295 246.446259,142.962189 
	C243.743256,144.872894 240.673141,144.701538 238.195969,142.442429 
	C235.670639,140.139404 235.206390,137.132889 237.378036,134.403366 
	C240.114716,130.963638 243.583954,131.110352 247.419312,133.576462 
z"/>
<path fill="#F49517" opacity="1.000000" stroke="none" 
	d="
M266.164825,132.050964 
	C268.270325,131.972733 269.951508,131.820023 271.584167,132.035324 
	C274.666779,132.441833 275.792816,134.366150 275.177795,137.352112 
	C275.079315,137.830139 274.813843,138.271301 274.661469,138.741150 
	C274.172791,140.248108 271.614838,141.502701 270.060486,141.040115 
	C269.195343,140.782654 268.307770,140.887634 268.151733,141.954315 
	C267.957397,143.282761 267.563721,144.300919 265.996704,143.838760 
	C264.407776,143.370132 264.955841,141.895752 265.023712,140.889908 
	C265.220367,137.973297 264.202728,134.949493 266.164825,132.050964 
z"/>
<path fill="#F49518" opacity="1.000000" stroke="none" 
	d="
M346.563812,140.294434 
	C345.453094,142.321060 344.117096,143.562195 342.213409,143.909454 
	C339.229309,144.453827 336.516602,143.917236 334.838867,141.096298 
	C333.435608,138.736938 333.551605,136.323456 335.303192,134.146652 
	C337.365112,131.584198 340.233429,131.271774 342.995789,132.287064 
	C346.432861,133.550308 347.620270,136.346130 346.563812,140.294434 
z"/>
<path fill="#F29C2A" opacity="1.000000" stroke="none" 
	d="
M160.325180,132.104858 
	C161.739258,131.923203 162.738022,131.908661 163.735947,131.871490 
	C166.625900,131.763901 169.325958,132.281494 169.708023,135.699738 
	C170.039169,138.662552 168.142319,140.255905 165.313538,140.765640 
	C164.986298,140.824600 164.654404,140.891800 164.324173,140.894547 
	C162.272995,140.911575 162.848526,145.625290 160.163254,143.634277 
	C157.968460,142.006943 159.468674,138.971954 159.257294,136.578079 
	C159.130814,135.145920 158.825745,133.563980 160.325180,132.104858 
z"/>
<path fill="#F49518" opacity="1.000000" stroke="none" 
	d="
M218.308136,132.219727 
	C221.208984,133.760162 221.594574,135.891052 220.601944,138.334778 
	C220.166260,139.407410 219.413208,140.286652 220.068222,141.569931 
	C220.430008,142.278732 221.636581,143.299728 219.953171,143.879791 
	C218.924332,144.234283 218.017883,143.794815 217.400818,142.829300 
	C216.026794,140.679352 214.707275,139.266495 213.727020,143.099640 
	C213.540329,143.829697 212.789490,143.970306 212.103989,143.894165 
	C211.035172,143.775436 210.851318,142.944366 210.843262,142.092865 
	C210.817993,139.426910 210.355896,136.648621 210.945450,134.119568 
	C211.924072,129.921524 215.493195,132.570435 218.308136,132.219727 
z"/>
<path fill="#F49518" opacity="1.000000" stroke="none" 
	d="
M109.154327,139.180542 
	C108.912239,141.115616 108.911903,141.117630 110.524185,141.384537 
	C111.730339,141.584213 113.693748,140.906525 113.729691,142.729675 
	C113.769043,144.725922 111.704498,144.078491 110.627861,143.945511 
	C108.488693,143.681320 105.203514,145.418808 104.436714,142.750031 
	C103.560806,139.701523 104.017815,136.174026 104.383217,132.909225 
	C104.543343,131.478561 109.131851,131.471222 113.499649,132.742004 
	C113.625626,133.569763 113.112251,133.848953 112.436806,134.082245 
	C110.955795,134.593750 108.321388,133.332413 108.084480,135.249023 
	C107.777481,137.732666 110.514671,136.378372 111.837631,136.906845 
	C112.560387,137.195557 113.098457,137.727631 112.744743,138.316330 
	C112.030876,139.504425 110.668556,138.944107 109.154327,139.180542 
z"/>
<path fill="#F49518" opacity="1.000000" stroke="none" 
	d="
M191.095398,136.784302 
	C192.270828,137.041794 193.420685,137.070251 193.691086,137.572342 
	C194.206955,138.530228 193.291580,138.874832 192.413391,139.059982 
	C191.253494,139.304535 189.734772,138.532547 189.033432,140.030716 
	C189.068573,141.074448 189.810104,141.062119 190.385422,141.308823 
	C191.833572,141.929810 194.790283,140.243088 194.572952,143.051300 
	C194.428207,144.921539 191.777939,143.708374 190.279236,144.015106 
	C184.320023,145.234772 185.236374,141.145294 185.017441,137.517502 
	C184.778366,133.555801 185.407227,130.987320 190.219452,131.887222 
	C191.631104,132.151215 193.177063,131.607407 194.661652,132.586899 
	C194.006332,134.987473 192.017426,133.941544 190.631699,134.218796 
	C189.781723,134.388870 188.820999,134.562744 188.835876,135.517700 
	C188.850647,136.465912 189.806076,136.708023 191.095398,136.784302 
z"/>
<path fill="#F3971E" opacity="1.000000" stroke="none" 
	d="
M312.042664,143.110306 
	C310.483734,144.231995 309.233307,144.275009 309.147003,142.274094 
	C309.025879,139.465546 308.949249,136.636780 309.149017,133.837738 
	C309.358276,130.904785 311.817780,132.056122 313.400726,131.942459 
	C315.963287,131.758453 318.561798,131.951828 319.246399,135.160629 
	C319.701355,137.293030 318.965057,138.939209 316.939972,140.130554 
	C315.374695,141.051392 312.615356,139.801834 312.042664,143.110306 
z"/>
<path fill="#F4961B" opacity="1.000000" stroke="none" 
	d="
M368.651398,141.234604 
	C370.487335,141.406387 371.632294,142.549942 370.560150,143.415436 
	C368.860443,144.787491 366.429047,144.056549 364.324127,143.897522 
	C362.356171,143.748825 362.869446,142.019699 362.827118,140.806412 
	C362.752289,138.661575 362.791718,136.511719 362.824615,134.364594 
	C362.842499,133.197479 362.833282,131.890198 364.575775,132.083710 
	C365.915222,132.232498 365.880646,133.347672 365.904724,134.329529 
	C365.941193,135.815598 365.975098,137.304016 365.931732,138.789154 
	C365.884583,140.404144 366.523071,141.288162 368.651398,141.234604 
z"/>
<path fill="#D8D7D6" opacity="1.000000" stroke="none" 
	d="
M389.705200,135.659698 
	C391.851562,134.316605 393.582794,134.360641 394.674316,136.337112 
	C395.438690,137.721252 395.280853,139.257736 394.055206,140.438354 
	C393.134003,141.325745 391.927063,141.482574 390.819733,140.974182 
	C388.469818,139.895248 388.547943,138.013611 389.705200,135.659698 
z"/>
<path fill="#DBD3C8" opacity="1.000000" stroke="none" 
	d="
M243.710587,134.592163 
	C246.069794,136.033447 246.568420,137.779648 245.404434,139.861877 
	C244.661255,141.191299 243.345840,141.474396 241.930023,141.184967 
	C240.188416,140.828949 239.309113,139.525864 239.413055,137.941254 
	C239.562988,135.655045 240.919113,134.321640 243.710587,134.592163 
z"/>
<path fill="#DBD3C8" opacity="1.000000" stroke="none" 
	d="
M269.146118,134.315277 
	C271.172150,134.364990 272.504272,134.907730 271.972687,136.875305 
	C271.589325,138.294449 270.161377,138.320984 269.175781,137.890717 
	C267.329102,137.084564 267.872192,135.689865 269.146118,134.315277 
z"/>
<path fill="#DCD0C0" opacity="1.000000" stroke="none" 
	d="
M337.512726,139.608246 
	C336.667603,136.985229 337.506561,135.381607 339.637085,134.476852 
	C340.863922,133.955841 341.931274,134.504868 342.753052,135.389694 
	C344.009705,136.742722 344.415283,138.372833 343.195496,139.880310 
	C341.494629,141.982407 339.569611,141.825623 337.512726,139.608246 
z"/>
<path fill="#DCD0C0" opacity="1.000000" stroke="none" 
	d="
M164.611496,134.308792 
	C166.294281,134.981445 167.256165,135.799393 166.040298,137.299744 
	C165.336807,138.167847 164.077362,138.351410 163.466415,137.645187 
	C162.417679,136.432922 162.201569,134.983017 164.611496,134.308792 
z"/>
<path fill="#DBD3C8" opacity="1.000000" stroke="none" 
	d="
M215.832886,134.270142 
	C217.744751,134.808411 218.584457,135.847763 217.625763,137.286560 
	C216.939697,138.316223 215.326172,138.526825 214.550476,137.624283 
	C213.536972,136.445084 213.258896,134.865967 215.832886,134.270142 
z"/>
<path fill="#DCD0C0" opacity="1.000000" stroke="none" 
	d="
M313.255432,134.351196 
	C315.308105,134.403519 316.520355,135.055618 315.902893,136.998932 
	C315.545990,138.122253 314.378876,138.253906 313.472961,137.911026 
	C311.479340,137.156433 311.990723,135.798386 313.255432,134.351196 
z"/>
</svg>